<svg width="20" height="20" viewBox="0 0 20 20" fill="none" xmlns="http://www.w3.org/2000/svg">
<path d="M19.9398 5.8767C19.8918 4.81185 19.7198 4.08327 19.4757 3.44676C19.2197 2.79023 18.8796 2.22978 18.3235 1.67734C17.7674 1.1249 17.2113 0.776621 16.5551 0.52442C15.919 0.276221 15.1909 0.108086 14.1266 0.060048C13.0584 0.0120096 12.7184 0 10.0058 0C7.28927 0 6.9492 0.0120096 5.88499 0.060048C4.82078 0.108086 4.09263 0.280224 3.4565 0.52442C2.79637 0.780625 2.23626 1.1209 1.68415 1.67734C1.13204 2.23379 0.783968 2.79023 0.531917 3.44676C0.287868 4.08327 0.115834 4.81185 0.0678245 5.8767C0.0198149 6.94556 0.0078125 7.28583 0.0078125 10C0.0078125 12.7182 0.0198149 13.0584 0.0678245 14.1233C0.115834 15.1882 0.287868 15.9167 0.531917 16.5532C0.787969 17.2098 1.12804 17.7702 1.68415 18.3227C2.23626 18.8791 2.79637 19.2234 3.4525 19.4756C4.08863 19.7238 4.81677 19.8919 5.88099 19.94C6.9492 19.988 7.28927 20 10.0018 20C12.7184 20 13.0584 19.988 14.1226 19.94C15.1868 19.8919 15.915 19.7198 16.5511 19.4756C17.2073 19.2194 17.7674 18.8791 18.3195 18.3227C18.8716 17.7662 19.2197 17.2098 19.4717 16.5532C19.7198 15.9167 19.8878 15.1882 19.9358 14.1233C19.9838 13.0544 19.9958 12.7142 19.9958 10C19.9958 7.28583 19.9878 6.94155 19.9398 5.8767ZM18.1434 14.0432C18.0994 15.02 17.9354 15.5524 17.7994 15.9007C17.6193 16.3651 17.3993 16.7014 17.0472 17.0536C16.6952 17.4059 16.3631 17.6181 15.895 17.8062C15.5429 17.9424 15.0108 18.1065 14.0386 18.1505C12.9864 18.1986 12.6703 18.2106 9.99781 18.2106C7.32528 18.2106 7.00921 18.1986 5.957 18.1505C4.98081 18.1065 4.4487 17.9424 4.10063 17.8062C3.63654 17.6261 3.30047 17.4059 2.9484 17.0536C2.59633 16.7014 2.38429 16.3691 2.19625 15.9007C2.06022 15.5484 1.89619 15.016 1.85218 14.0432C1.80417 12.9904 1.79217 12.6741 1.79217 10C1.79217 7.32586 1.80417 7.00961 1.85218 5.95677C1.89619 4.97998 2.06022 4.44756 2.19625 4.09928C2.37629 3.63491 2.59633 3.29864 2.9484 2.94636C3.30047 2.59408 3.63254 2.38191 4.10063 2.19376C4.4527 2.05765 4.98481 1.89351 5.957 1.84948C7.00921 1.80144 7.32528 1.78943 9.99781 1.78943C12.6703 1.78943 12.9864 1.80144 14.0386 1.84948C15.0148 1.89351 15.5469 2.05765 15.895 2.19376C16.3591 2.3739 16.6952 2.59408 17.0472 2.94636C17.3993 3.29864 17.6113 3.6309 17.7994 4.09928C17.9354 4.45156 18.0994 4.98399 18.1434 5.95677C18.1915 7.00961 18.2035 7.32586 18.2035 10C18.2035 12.6741 18.1874 12.9904 18.1434 14.0432Z" fill="url(#paint0_linear_12030_5962)"/>
<path d="M9.99785 4.85987C7.15728 4.85987 4.86082 7.16171 4.86082 9.99999C4.86082 12.8423 7.16128 15.1401 9.99785 15.1401C12.8344 15.1401 15.1349 12.8343 15.1349 9.99999C15.1349 7.15771 12.8384 4.85987 9.99785 4.85987ZM9.99785 13.3347C8.15748 13.3347 6.66518 11.8415 6.66518 9.99999C6.66518 8.15851 8.15748 6.66532 9.99785 6.66532C11.8382 6.66532 13.3305 8.15851 13.3305 9.99999C13.3305 11.8415 11.8382 13.3347 9.99785 13.3347Z" fill="url(#paint1_linear_12030_5962)"/>
<path d="M15.3349 5.86068C15.9978 5.86068 16.5351 5.32299 16.5351 4.65972C16.5351 3.99645 15.9978 3.45876 15.3349 3.45876C14.672 3.45876 14.1347 3.99645 14.1347 4.65972C14.1347 5.32299 14.672 5.86068 15.3349 5.86068Z" fill="#BC30A0"/>
<defs>
<linearGradient id="paint0_linear_12030_5962" x1="16.9087" y1="1.52934" x2="2.44001" y2="19.2563" gradientUnits="userSpaceOnUse">
<stop stop-color="#AE3DAE"/>
<stop offset="0.0468721" stop-color="#B23BA6"/>
<stop offset="0.1216" stop-color="#BD368E"/>
<stop offset="0.2148" stop-color="#CE2E69"/>
<stop offset="0.3216" stop-color="#E62335"/>
<stop offset="0.418" stop-color="#FF1800"/>
</linearGradient>
<linearGradient id="paint1_linear_12030_5962" x1="14.768" y1="1.97952" x2="4.54228" y2="19.1622" gradientUnits="userSpaceOnUse">
<stop stop-color="#E12F6A"/>
<stop offset="0.1705" stop-color="#EA3751"/>
<stop offset="0.3563" stop-color="#F13D3E"/>
<stop offset="0.5467" stop-color="#F64133"/>
<stop offset="0.7469" stop-color="#F7422F"/>
<stop offset="0.7946" stop-color="#F74C2F"/>
<stop offset="0.8743" stop-color="#F7652F"/>
<stop offset="0.9757" stop-color="#F78F2E"/>
<stop offset="1" stop-color="#F79A2E"/>
</linearGradient>
</defs>
</svg>
