<svg width="769" height="465" viewBox="0 0 769 465" fill="none" xmlns="http://www.w3.org/2000/svg">
<path d="M58.9277 69.3389C15.1077 101.767 -0.730184 155.083 1.14782 205.918C1.14782 209.38 1.14785 212.842 1.77385 216.304C6.36729 262.32 21.8371 306.85 47.0963 346.766C79.4605 398.697 83.0286 452.532 119.024 523.505C160.715 605.787 223.19 634.06 287.605 617.442C338.311 621.482 413.244 597.132 447.548 537.642C480.601 480.46 472.588 420.104 489.991 367.019C497.941 342.958 513.09 319.416 541.824 306.722C552.499 302.075 563.875 298.943 575.565 297.432C608.493 292.642 643.612 296.855 674.599 284.795C715.101 268.985 744.898 233.153 760.423 196.166C775.948 159.18 767.622 123.924 735.383 98.0741C649.308 28.9481 517.285 -2.15288 400.536 1.25149C325.316 2.61732 250.492 11.6545 177.429 28.1979C136.677 37.8917 92.6691 44.5851 58.9277 69.3389Z" stroke="#CBCBCB" stroke-miterlimit="10"/>
</svg>
