<svg width="122" height="40" viewBox="0 0 122 40" fill="none" xmlns="http://www.w3.org/2000/svg">
<path d="M32.089 6.47461V9.10203C31.9711 9.19875 31.8531 9.30084 31.7352 9.40293C28.6531 12.1486 26.8842 16.0924 26.8842 20.2243C26.8842 23.3406 27.8544 26.3066 29.693 28.7997C29.7359 28.8534 29.7734 28.9125 29.8163 28.9662C27.5757 32.3351 23.7806 34.3715 19.0047 34.3715C11.2055 34.3715 5.88281 29.7292 5.88281 20.7508V18.1986H16.0297V20.869C16.0297 25.1245 22.0546 25.0493 22.0546 20.7938V6.47461H32.089Z" fill="#222222"/>
<path d="M51.3375 27.9035C51.2792 27.7843 51.221 27.6652 51.168 27.546C51.1256 27.4539 51.0886 27.3672 51.0515 27.2752C51.0039 27.1614 50.9562 27.0477 50.9138 26.9285C50.8768 26.8418 50.845 26.7497 50.8132 26.6631C50.7603 26.5168 50.7126 26.3706 50.665 26.2243C50.6279 26.1051 50.5908 25.986 50.559 25.8668C50.5273 25.7476 50.4955 25.623 50.4637 25.5039C50.432 25.3847 50.4055 25.2601 50.379 25.1409C50.3525 25.0163 50.326 24.8972 50.3049 24.7726C50.2784 24.648 50.2625 24.5288 50.2413 24.4042C50.146 23.7867 50.0984 23.1584 50.0984 22.5246V10.1147C47.6466 7.76381 44.4535 6.47461 41.0857 6.47461C37.7179 6.47461 34.7207 7.69339 32.3008 9.90345C29.4784 12.4602 27.8633 16.1436 27.8633 20.0004C27.8633 22.9092 28.7529 25.6772 30.4315 28.0064C32.915 31.4624 36.8971 33.5262 41.0857 33.5262C45.2743 33.5262 49.0393 31.5761 51.5334 28.2881C51.4645 28.1635 51.401 28.0335 51.3375 27.9035ZM41.0857 22.958C39.4918 22.958 38.1945 21.6308 38.1945 20.0004C38.1945 18.3699 39.4918 17.0428 41.0857 17.0428C42.6796 17.0428 43.977 18.3699 43.977 20.0004C43.977 21.6308 42.6796 22.958 41.0857 22.958Z" fill="#005DDC"/>
<path d="M81.1193 5.62891V32.6805H71.8203V28.4255C71.9831 28.1737 72.1353 27.9111 72.2824 27.6431C73.2275 25.8908 73.7263 23.8973 73.7263 21.877C73.7263 19.8567 73.2275 17.8632 72.2824 16.1108C72.1353 15.8429 71.9831 15.5803 71.8203 15.3285V5.62891H81.1193Z" fill="#222222"/>
<path d="M72.6669 21.572C72.6669 23.4416 72.1979 25.2894 71.3137 26.9137C69.3837 30.4729 65.6908 32.6805 61.6799 32.6805C57.6689 32.6805 54.1378 30.5602 52.1754 27.1371C51.1997 25.4638 50.6875 23.5343 50.6875 21.572V5.62891H59.1623V21.572C59.1623 22.9783 60.289 24.1175 61.6799 24.1175C63.0708 24.1175 64.1975 22.9783 64.1975 21.572C64.1975 20.1658 63.0708 19.0211 61.6799 19.0211H60.7796V10.4582H61.6799C65.6908 10.4582 69.3837 12.6711 71.3137 16.2304C72.1979 17.8547 72.6669 19.7025 72.6669 21.572Z" fill="#222222"/>
<path d="M92.1115 11.5469H82.8125V32.6809H92.1115V11.5469Z" fill="#222222"/>
<path d="M115.78 21.7274V32.6806H106.428V22.1528C106.428 19.473 103.153 19.473 103.153 22.1528V32.6806H93.8008V21.7274C93.8008 7.02576 115.78 7.02576 115.78 21.7274Z" fill="#222222"/>
<path d="M11.3783 14.9266C13.4793 14.9266 15.1825 13.2234 15.1825 11.1225C15.1825 9.02152 13.4793 7.31836 11.3783 7.31836C9.27738 7.31836 7.57422 9.02152 7.57422 11.1225C7.57422 13.2234 9.27738 14.9266 11.3783 14.9266Z" fill="#005DDC"/>
</svg>
