<svg width="31" height="13" viewBox="0 0 31 13" fill="none" xmlns="http://www.w3.org/2000/svg">
<path fill-rule="evenodd" clip-rule="evenodd" d="M4.01099 1.9961C4.57003 2.03704 5.12906 1.75042 5.47845 1.38703C5.82202 1.0134 6.04913 0.51182 5.9909 0C5.49592 0.0204728 4.88448 0.286619 4.53509 0.660248C4.21481 0.982694 3.94112 1.50475 4.01099 1.9961ZM11 11V1H14.7295C16.6548 1 18 2.33419 18 4.28416C18 6.23412 16.6293 7.58114 14.6785 7.58114H12.5428V11H11ZM5.9468 3.00324C5.45488 2.97288 5.00602 3.16188 4.64347 3.31455C4.41016 3.41279 4.21259 3.49598 4.06228 3.49598C3.8936 3.49598 3.68787 3.40834 3.45688 3.30994C3.15421 3.181 2.80818 3.03359 2.44531 3.04067C1.61356 3.05314 0.839971 3.55835 0.415372 4.36296C-0.457093 5.97216 0.188531 8.35478 1.03191 9.6646C1.44488 10.3133 1.93928 11.0243 2.59072 10.9994C2.87731 10.9878 3.08347 10.894 3.29683 10.7969C3.54246 10.6851 3.79763 10.569 4.19605 10.569C4.58067 10.569 4.82468 10.6821 5.05891 10.7906C5.28163 10.8938 5.49551 10.993 5.81302 10.9869C6.48773 10.9744 6.91233 10.3382 7.32529 9.68954C7.77095 8.99335 7.96679 8.31389 7.99652 8.21078L8 8.19885C7.99929 8.19808 7.99378 8.19538 7.98407 8.19061C7.83508 8.11747 6.69641 7.55847 6.68549 6.05948C6.67452 4.80129 7.58866 4.16382 7.73256 4.06347C7.74132 4.05736 7.74722 4.05324 7.74989 4.0511C7.16825 3.12799 6.26089 3.02819 5.9468 3.00324ZM20.3678 10C21.3099 10 22.1839 9.53454 22.5806 8.79706H22.6116V9.92746H24V5.23661C24 3.87651 22.8843 3 21.1674 3C19.5744 3 18.3967 3.8886 18.3533 5.10967H19.7045C19.8161 4.52936 20.3678 4.14853 21.124 4.14853C22.0413 4.14853 22.5558 4.56563 22.5558 5.33333V5.8532L20.6839 5.962C18.9421 6.06477 18 6.75993 18 7.96891C18 9.18998 18.9731 10 20.3678 10ZM20.2685 9C19.493 9 19 8.63314 19 8.07101C19 7.49112 19.475 7.15385 20.3828 7.10059L22 7V7.52071C22 8.38461 21.2545 9 20.2685 9ZM28.23 10.6656C27.5978 12.4212 26.8743 13 25.3361 13C25.2188 13 24.8277 12.9871 24.7365 12.9614V11.7588C24.8343 11.7717 25.0754 11.7846 25.1993 11.7846C25.8966 11.7846 26.2877 11.4952 26.5289 10.7428L26.6723 10.299L24 3H25.649L27.5065 8.92283H27.5391L29.3966 3H31L28.23 10.6656ZM13 2H14.8325C16.2118 2 17 2.72375 17 3.99677C17 5.26979 16.2118 6 14.8259 6H13V2Z" fill="#222222"/>
</svg>
