<svg width="22" height="19" viewBox="0 0 22 19" fill="none" xmlns="http://www.w3.org/2000/svg">
<path d="M12.8884 18.9999C17.652 19.0247 22 14.7646 22 9.58218C22 3.91537 17.652 -0.00211441 12.8884 8.56196e-07H8.78854C3.96814 -0.00211441 0 3.91643 0 9.58218C0 14.7656 3.96814 19.0247 8.78854 18.9999H12.8884Z" fill="#0079BE"/>
<path d="M8.99951 1C4.5812 1.00155 1.00147 4.8054 1 9.50026C1.00147 14.1946 4.5812 17.9984 8.99951 18C13.4183 17.9984 16.9995 14.1946 17 9.50026C16.9995 4.8054 13.4188 1.00155 8.99951 1ZM3.92918 9.50026C3.92825 8.41477 4.23843 7.35423 4.81918 6.45725C5.39993 5.56027 6.22423 4.86857 7.18436 4.47256V14.5274C6.22416 14.1317 5.39975 13.4401 4.81897 12.5432C4.23819 11.6463 3.92808 10.5857 3.92918 9.50026ZM10.8142 14.5295V4.47205C11.775 4.86749 12.6 5.55913 13.1812 6.45641C13.7624 7.35369 14.0726 8.41479 14.0713 9.50078C14.0724 10.5867 13.7621 11.6477 13.181 12.545C12.5998 13.4422 11.7749 14.1339 10.8142 14.5295Z" fill="white"/>
<path d="M12.8884 18.9999C17.652 19.0247 22 14.7646 22 9.58218C22 3.91537 17.652 -0.00211441 12.8884 8.56196e-07H8.78854C3.96814 -0.00211441 0 3.91643 0 9.58218C0 14.7656 3.96814 19.0247 8.78854 18.9999H12.8884Z" fill="#0079BE"/>
<path d="M8.99951 1C4.5812 1.00155 1.00147 4.8054 1 9.50026C1.00147 14.1946 4.5812 17.9984 8.99951 18C13.4183 17.9984 16.9995 14.1946 17 9.50026C16.9995 4.8054 13.4188 1.00155 8.99951 1ZM3.92918 9.50026C3.92825 8.41477 4.23843 7.35423 4.81918 6.45725C5.39993 5.56027 6.22423 4.86857 7.18436 4.47256V14.5274C6.22416 14.1317 5.39975 13.4401 4.81897 12.5432C4.23819 11.6463 3.92808 10.5857 3.92918 9.50026ZM10.8142 14.5295V4.47205C11.775 4.86749 12.6 5.55913 13.1812 6.45641C13.7624 7.35369 14.0726 8.41479 14.0713 9.50078C14.0724 10.5867 13.7621 11.6477 13.181 12.545C12.5998 13.4422 11.7749 14.1339 10.8142 14.5295Z" fill="white"/>
</svg>
