<svg width="15" height="16" viewBox="0 0 15 16" fill="none" xmlns="http://www.w3.org/2000/svg">
<path d="M7.5 0C6.01664 0 4.56659 0.469192 3.33323 1.34824C2.09986 2.22729 1.13856 3.47672 0.570907 4.93853C0.0032495 6.40034 -0.145275 8.00887 0.144114 9.56072C0.433503 11.1126 1.14781 12.538 2.1967 13.6569C3.2456 14.7757 4.58197 15.5376 6.03682 15.8463C7.49168 16.155 8.99968 15.9965 10.3701 15.391C11.7406 14.7855 12.9119 13.7602 13.736 12.4446C14.5601 11.129 15 9.58225 15 8C14.9977 5.87903 14.2067 3.84565 12.8007 2.3459C11.3947 0.846145 9.48841 0.00249086 7.5 0ZM7.5 15.0588C6.19115 15.0588 4.9117 14.6448 3.82343 13.8692C2.73517 13.0936 1.88697 11.9911 1.38609 10.7013C0.88522 9.41146 0.754169 7.99217 1.00951 6.62289C1.26486 5.25361 1.89513 3.99585 2.82062 3.00866C3.74611 2.02146 4.92527 1.34918 6.20896 1.07681C7.49266 0.804443 8.82325 0.944232 10.0325 1.4785C11.2417 2.01276 12.2752 2.91751 13.0024 4.07833C13.7295 5.23914 14.1176 6.6039 14.1176 8C14.1157 9.87148 13.4179 11.6657 12.1772 12.989C10.9366 14.3124 9.25451 15.0567 7.5 15.0588ZM5 8C5 8.55968 5.1651 9.10518 5.4719 9.55922C5.7787 10.0133 6.21165 10.3528 6.70943 10.5298C7.20721 10.7068 7.74458 10.7122 8.24542 10.5454C8.74626 10.3785 9.18518 10.0477 9.5 9.6C9.5703 9.50015 9.67491 9.43418 9.79081 9.41661C9.90671 9.39903 10.0244 9.43128 10.118 9.50627C10.2116 9.58126 10.2735 9.69284 10.2899 9.81647C10.3064 9.94009 10.2762 10.0656 10.2059 10.1655C9.77984 10.7711 9.18598 11.2183 8.5084 11.444C7.83083 11.6696 7.10389 11.6621 6.43052 11.4225C5.75716 11.183 5.17151 10.7236 4.75651 10.1093C4.34151 9.49509 4.1182 8.75714 4.1182 8C4.1182 7.24286 4.34151 6.50491 4.75651 5.89065C5.17151 5.2764 5.75716 4.81698 6.43052 4.57745C7.10389 4.33793 7.83083 4.33044 8.5084 4.55604C9.18598 4.78165 9.77984 5.22892 10.2059 5.83451C10.2762 5.93435 10.3064 6.0599 10.2899 6.18353C10.2735 6.30715 10.2116 6.41874 10.118 6.49372C10.0244 6.56871 9.90671 6.60097 9.79081 6.58339C9.67491 6.56581 9.5703 6.49984 9.5 6.4C9.18518 5.95225 8.74626 5.62151 8.24542 5.45463C7.74458 5.28775 7.20721 5.29319 6.70943 5.47018C6.21165 5.64716 5.7787 5.98673 5.4719 6.44077C5.1651 6.89481 5 7.44031 5 8Z" fill="#222222"/>
</svg>
