<svg width="30" height="12" viewBox="0 0 30 12" fill="none" xmlns="http://www.w3.org/2000/svg">
<path fill-rule="evenodd" clip-rule="evenodd" d="M14.1804 10V6.35428H16.1306C16.9298 6.35428 17.6043 6.09592 18.1542 5.58638L18.2861 5.4572C19.2906 4.40224 19.2246 2.7588 18.1542 1.78278C17.619 1.26606 16.8858 0.986173 16.1306 1.00053H13V10H14.1804ZM14 4.99921V2H15.6509C16.0055 2 16.3418 2.15065 16.5925 2.42455C17.1244 2.99974 17.1366 3.95839 16.623 4.55412C16.3724 4.84856 16.0177 5.0129 15.6509 4.99921H14ZM23.3215 3.62363C22.8671 3.21007 22.2479 3 21.464 3C20.4562 3 19.6987 3.36761 19.1981 4.09628L20.1335 4.68053C20.476 4.18162 20.9437 3.93217 21.5365 3.93217C21.912 3.93217 22.2742 4.07002 22.5575 4.31947C22.8341 4.5558 22.9922 4.89716 22.9922 5.25821V5.50109C22.5838 5.2779 22.07 5.15974 21.4377 5.15974C20.7 5.15974 20.1071 5.33042 19.6658 5.67834C19.2245 6.02626 19.0005 6.48578 19.0005 7.07002C18.9874 7.60175 19.2179 8.10722 19.6263 8.44858C20.0413 8.81619 20.5682 9 21.1874 9C21.9185 9 22.4982 8.67834 22.9395 8.03501H22.9856V8.81619H24V5.34354C24 4.61488 23.776 4.0372 23.3215 3.62363ZM20.3622 7.72967C20.1367 7.57537 20 7.32464 20 7.05461C20 6.75244 20.1503 6.5017 20.4442 6.3024C20.7449 6.1031 21.1207 6.00023 21.5649 6.00023C22.18 5.9938 22.6583 6.12238 23 6.37955C23 6.81673 22.8155 7.19605 22.4533 7.51751C22.1253 7.82611 21.6811 7.9997 21.2164 7.9997C20.9089 8.00613 20.6082 7.90969 20.3622 7.72967ZM26.2334 12L30 4H28.7748L27.0315 7.99028H27.0105L25.2252 4H24L26.4714 9.20162L25.0712 12H26.2334Z" fill="#3C4043"/>
<path d="M10 5.07988C10 4.71746 9.97106 4.35503 9.91317 4H5V6.04882H7.81476C7.69899 6.7071 7.32272 7.29882 6.77279 7.66864V9H8.45152C9.4356 8.07544 10 6.7071 10 5.07988Z" fill="#4285F4"/>
<path d="M5.59286 10C6.97857 10 8.15 9.56014 9 8.80412L7.34286 7.56701C6.87857 7.86942 6.28571 8.04124 5.59286 8.04124C4.25 8.04124 3.11429 7.16838 2.70714 6H1V7.27835C1.87143 8.94845 3.65 10 5.59286 10Z" fill="#34A853"/>
<path d="M2 5.85449C1.81028 5.30341 1.81028 4.70279 2 4.14551V3H0.488538C-0.162846 4.25697 -0.162846 5.74303 0.488538 7L2 5.85449Z" fill="#FBBC04"/>
<path d="M5.57244 1.95556C6.30489 1.94183 7.00889 2.2094 7.53511 2.6965L9 1.28322C8.06844 0.446234 6.84533 -0.0134225 5.57244 0.000298578C3.63822 0.000298578 1.86756 1.05682 1 2.72394L2.69956 4C3.10489 2.82685 4.23556 1.95556 5.57244 1.95556Z" fill="#EA4335"/>
</svg>
