<svg width="25" height="21" viewBox="0 0 25 21" fill="none" xmlns="http://www.w3.org/2000/svg">
<path fill-rule="evenodd" clip-rule="evenodd" d="M2.79887 15H0.984722C0.860578 15 0.754995 15.0871 0.735636 15.2054L0.00190308 19.6965C-0.0126805 19.7851 0.0584089 19.865 0.15152 19.865H1.01761C1.14175 19.865 1.24734 19.7779 1.2667 19.6594L1.46459 18.4481C1.48368 18.3295 1.58952 18.2425 1.71341 18.2425H2.28771C3.48275 18.2425 4.1724 17.6842 4.35261 16.5779C4.43375 16.0939 4.35604 15.7136 4.12121 15.4471C3.86342 15.1548 3.40602 15 2.79887 15ZM3.00817 16.6403C2.90898 17.2688 2.41159 17.2688 1.93067 17.2688H1.6569L1.84896 16.095C1.86036 16.0242 1.92402 15.9719 1.9983 15.9719H2.12377C2.45138 15.9719 2.76044 15.9719 2.92015 16.1522C3.01529 16.2598 3.0445 16.4195 3.00817 16.6403ZM8.22179 16.6202H7.35304C7.27902 16.6202 7.21506 16.6724 7.20364 16.7434L7.16522 16.978L7.10446 16.893C6.91639 16.6294 6.49705 16.5414 6.07845 16.5414C5.11837 16.5414 4.29847 17.2433 4.13876 18.228C4.05578 18.7191 4.17375 19.1888 4.46235 19.5164C4.72714 19.8175 5.10597 19.943 5.55661 19.943C6.3301 19.943 6.75914 19.4628 6.75914 19.4628L6.72035 19.6959C6.70574 19.785 6.77682 19.8649 6.86937 19.8649H7.65195C7.77643 19.8649 7.88139 19.7778 7.90103 19.6593L8.37057 16.7887C8.38543 16.7004 8.3146 16.6202 8.22179 16.6202ZM7.01079 18.2525C6.92695 18.7317 6.53302 19.0533 6.0307 19.0533C5.77843 19.0533 5.57674 18.9752 5.44735 18.8272C5.31895 18.6803 5.27009 18.471 5.31097 18.238C5.38929 17.7629 5.78985 17.4308 6.28456 17.4308C6.53118 17.4308 6.73176 17.5098 6.86385 17.6592C6.99618 17.81 7.04872 18.0205 7.01079 18.2525ZM11.9756 16.6201H12.8486C12.9709 16.6201 13.0422 16.7524 12.9727 16.8493L10.0692 20.8955C10.0222 20.961 9.94469 21 9.86195 21H8.99001C8.86725 21 8.79556 20.8666 8.86664 20.7695L9.77074 19.5374L8.80919 16.8131C8.77592 16.7184 8.84835 16.6201 8.95269 16.6201H9.81052C9.92198 16.6201 10.0203 16.6907 10.0525 16.7937L10.5628 18.4391L11.7669 16.7268C11.814 16.66 11.8924 16.6201 11.9756 16.6201Z" fill="#002F6E"/>
<path fill-rule="evenodd" clip-rule="evenodd" d="M23.0055 19.7507L23.7942 15.1249C23.8063 15.0531 23.8738 15.0002 23.9522 15H24.8401C24.9382 15 25.0135 15.081 24.998 15.1707L24.2202 19.7131C24.1999 19.833 24.0881 19.9211 23.9563 19.9211H23.1633C23.0653 19.9211 22.99 19.8403 23.0055 19.7507ZM16.9651 15.0002H15.0429C14.9117 15.0002 14.7998 15.0883 14.7793 15.208L14.002 19.7507C13.9865 19.8403 14.0618 19.9211 14.16 19.9211H15.1463C15.238 19.9211 15.3164 19.8595 15.3307 19.7756L15.5512 18.4879C15.5715 18.3679 15.6836 18.28 15.8148 18.28H16.4229C17.6891 18.28 18.4196 17.7152 18.6106 16.5962C18.6969 16.1067 18.614 15.722 18.3654 15.4525C18.0924 15.1568 17.6083 15.0002 16.9651 15.0002ZM17.1868 16.6594C17.082 17.2951 16.555 17.2951 16.0453 17.2951H15.7555L15.9593 16.1079C15.9714 16.0362 16.0382 15.9833 16.1172 15.9833H16.2501C16.5969 15.9833 16.9246 15.9833 17.0937 16.1656C17.1946 16.2745 17.2253 16.4361 17.1868 16.6594ZM22.7093 16.639H21.7897C21.7106 16.639 21.6435 16.6919 21.6317 16.7637L21.591 17.0009L21.5263 16.915C21.3271 16.6484 20.8831 16.5593 20.4397 16.5593C19.4226 16.5593 18.5543 17.2693 18.3851 18.2653C18.2975 18.7621 18.4219 19.2371 18.7277 19.5685C19.0087 19.8731 19.4095 20 19.8869 20C20.7063 20 21.1607 19.5143 21.1607 19.5143L21.1197 19.7501C21.1042 19.8402 21.1795 19.921 21.2782 19.921H22.1069C22.2381 19.921 22.3499 19.8329 22.3704 19.713L22.8681 16.8095C22.8833 16.7202 22.808 16.639 22.7093 16.639ZM21.4266 18.2901C21.3383 18.7748 20.9205 19.1001 20.3882 19.1001C20.1215 19.1001 19.9074 19.0211 19.7702 18.8714C19.6342 18.7228 19.5831 18.5111 19.6259 18.2754C19.7092 17.7948 20.1331 17.4589 20.6571 17.4589C20.9185 17.4589 21.1309 17.5389 21.2709 17.6899C21.4116 17.8425 21.4673 18.0554 21.4266 18.2901Z" fill="#179BD7"/>
<path d="M9.90566 13L10.1506 11.4648L9.60505 11.4523H7L8.81039 0.123852C8.81592 0.08965 8.83425 0.0577624 8.86094 0.0351204C8.88763 0.0124785 8.92187 0 8.95746 0H13.35C14.8083 0 15.8146 0.299467 16.34 0.89054C16.5863 1.16783 16.7432 1.45759 16.8191 1.77646C16.8987 2.11106 16.9001 2.51081 16.8224 2.99837L16.8167 3.03396V3.34635L17.0631 3.48408C17.2706 3.59268 17.4353 3.71699 17.5617 3.85934C17.7726 4.09641 17.9089 4.39773 17.9664 4.75496C18.0259 5.12237 18.0062 5.55955 17.9089 6.0545C17.7964 6.62387 17.6147 7.11974 17.3694 7.5255C17.1436 7.89937 16.8561 8.2094 16.5147 8.44979C16.1888 8.67807 15.8015 8.85141 15.3637 8.96236C14.9393 9.07131 14.4556 9.12639 13.9251 9.12639H13.5832C13.3388 9.12639 13.1013 9.21326 12.915 9.36904C12.7281 9.52801 12.6044 9.74512 12.5665 9.98271L12.5408 10.1209L12.1081 12.8267L12.0884 12.926C12.0833 12.9576 12.0744 12.9733 12.0613 12.9839C12.0496 12.9935 12.0327 13 12.0163 13H9.90566Z" fill="#002F6E"/>
<path d="M17.8263 3C17.8133 3.07952 17.7985 3.16081 17.7818 3.24433C17.2075 6.06574 15.2431 7.04042 12.734 7.04042H11.4565C11.1497 7.04042 10.8912 7.25365 10.8433 7.5433L10.1892 11.5131L10.004 12.6384C9.97289 12.8285 10.1262 13 10.3266 13H12.5925C12.8608 13 13.0886 12.8134 13.1309 12.5602L13.1532 12.45L13.5798 9.85913L13.6072 9.71705C13.6489 9.46295 13.8773 9.27637 14.1456 9.27637H14.4845C16.6797 9.27637 18.3982 8.42341 18.9005 5.95513C19.1103 4.92403 19.0017 4.06308 18.4465 3.45757C18.2785 3.27498 18.07 3.12349 17.8263 3Z" fill="#179BD7"/>
<path d="M17.3979 3.19844C17.31 3.17386 17.2192 3.15151 17.1261 3.1314C17.0326 3.11174 16.9367 3.09431 16.8381 3.07911C16.4928 3.02547 16.1145 3 15.7092 3H12.2881C12.2038 3 12.1238 3.01832 12.0522 3.0514C11.8944 3.12424 11.7772 3.26772 11.7488 3.44337L11.0209 7.87084L11 8C11.048 7.70859 11.3071 7.49405 11.6147 7.49405H12.8953C15.4105 7.49405 17.3798 6.51301 17.9554 3.67489C17.9725 3.59086 17.987 3.50907 18 3.42907C17.8544 3.35488 17.6966 3.29141 17.5268 3.23732C17.485 3.22392 17.4417 3.21096 17.3979 3.19844Z" fill="#222D65"/>
<path d="M11.5614 3.44345C11.5904 3.26767 11.71 3.1241 11.8708 3.05164C11.9444 3.01854 12.0255 3.00021 12.1113 3.00021H15.5997C16.013 3.00021 16.3987 3.0257 16.7506 3.07938C16.8513 3.09458 16.9491 3.11203 17.0444 3.1317C17.1393 3.15183 17.2318 3.1742 17.3215 3.19879C17.3661 3.21132 17.4102 3.22428 17.4533 3.23726C17.6265 3.29137 17.7874 3.35533 17.9359 3.42913C18.1106 2.37941 17.9345 1.6647 17.3325 1.01751C16.6687 0.305029 15.4706 0 13.9376 0H9.48708C9.17391 0 8.90689 0.214674 8.85841 0.506738L7.00476 11.5831C6.96815 11.8022 7.14748 12 7.38185 12H10.1296L10.8194 7.87399L11.5614 3.44345Z" fill="#002F6E"/>
</svg>
