<svg width="32" height="13" viewBox="0 0 32 13" fill="none" xmlns="http://www.w3.org/2000/svg">
<path fill-rule="evenodd" clip-rule="evenodd" d="M17 1.57977L15 2V0.412451L17 0V1.57977ZM8.25806 1L6.00922 1.46847L6 8.68468C6 10.018 7.02304 11 8.3871 11C9.14286 11 9.69585 10.8649 10 10.7027V8.87387C9.70507 8.99099 8.24885 9.40541 8.24885 8.07207V4.87387H10V2.95496H8.24885L8.25806 1ZM3.1937 4.90769C2.69291 4.90769 2.39055 5.03956 2.39055 5.38242C2.39055 5.75676 2.91092 5.92143 3.5565 6.12573C4.60894 6.45877 5.99414 6.89712 6 8.52088C6 10.0945 4.64882 11 2.68346 11C1.87087 11 0.982677 10.8505 0.103937 10.4989V8.40659C0.897638 8.81099 1.89921 9.10989 2.68346 9.10989C3.2126 9.10989 3.59055 8.97802 3.59055 8.57363C3.59055 8.15897 3.02646 7.96944 2.34545 7.74062C1.30831 7.39215 0 6.95256 0 5.48791C0 3.93187 1.27559 3 3.1937 3C3.97795 3 4.75276 3.11429 5.53701 3.4044V5.47033C4.8189 5.10989 3.91181 4.90769 3.1937 4.90769ZM13.1091 3.76207L12.9636 3.0934H11V11H13.2727V5.64159C13.8091 4.94581 14.7182 5.07231 15 5.17171V10H17V3H15V3.0934C14.7091 2.98497 13.6455 2.78617 13.1091 3.76207ZM28.5989 3C30.8318 3 32 4.77778 32 7.0308C32 7.1524 31.9938 7.35565 31.9885 7.52808V7.52814V7.52817L31.9885 7.52828L31.9884 7.52842V7.52847V7.52855L31.9884 7.52868C31.9845 7.65553 31.9812 7.76561 31.9812 7.81408H27.3742C27.4778 8.85258 28.288 9.15182 29.2019 9.15182C30.1346 9.15182 30.8694 8.967 31.5101 8.66777V10.4279C30.8694 10.7624 30.0215 11 28.9004 11C26.6016 11 25 9.66227 25 7.0132C25 4.77778 26.3567 3 28.5989 3ZM28.0233 5C27.5349 5 27 5.29375 27 6H29C29 5.29375 28.4961 5 28.0233 5ZM21.9 3C21.0091 3 20.4364 3.38917 20.1182 3.6599L20 3.13536H18V13L20.2727 12.5516L20.2818 10.1574C20.6091 10.3773 21.0909 10.6904 21.8909 10.6904C23.5182 10.6904 25 9.47208 25 6.79019C24.9909 4.33672 23.4909 3 21.9 3ZM20.8718 8C20.4396 8 20.1831 7.8651 20.0073 7.69807L20 5.31477C20.1905 5.12848 20.4542 5 20.8718 5C21.5385 5 22 5.65525 22 6.49679C22 7.3576 21.5458 8 20.8718 8Z" fill="#6461FC"/>
</svg>
