<svg width="30" height="10" viewBox="0 0 30 10" fill="none" xmlns="http://www.w3.org/2000/svg">
<path fill-rule="evenodd" clip-rule="evenodd" d="M7.89912 10H5.16476L3.11432 2.00107C3.017 1.63312 2.81035 1.30783 2.50639 1.15451C1.74781 0.769231 0.911899 0.462605 0 0.307959V0H4.40484C5.01278 0 5.46873 0.462605 5.54472 0.999867L6.6086 6.76976L9.34163 0H12L7.89912 10ZM12.1937 9H10L11.8063 0H14L12.1937 9ZM17.3974 2.61939C17.4654 2.14928 17.8734 1.88047 18.3494 1.88047C19.0973 1.81298 19.9121 1.94796 20.592 2.2831L21 0.403789C20.32 0.134984 19.5721 0 18.8933 0C16.6506 0 15.0187 1.20904 15.0187 2.88703C15.0187 4.16357 16.1747 4.83383 16.9906 5.23762C17.8734 5.64025 18.2134 5.90905 18.1454 6.31168C18.1454 6.91562 17.4654 7.18442 16.7866 7.18442C15.9707 7.18442 15.1547 6.98311 14.408 6.64681L14 8.52728C14.816 8.86242 15.6987 8.9974 16.5147 8.9974C19.0293 9.06373 20.592 7.85585 20.592 6.04287C20.592 3.75978 17.3974 3.62596 17.3974 2.61939ZM30 10L27.9751 0H25.8002C25.3499 0 24.8996 0.307959 24.7496 0.769231L21 10H23.6252L24.1492 8.53886H27.3748L27.675 10H30ZM26.2865 3L27 7H25L26.2865 3Z" fill="#172B85"/>
</svg>
