<svg width="20" height="20" viewBox="0 0 20 20" fill="none" xmlns="http://www.w3.org/2000/svg">
<path d="M19.9169 9.54968C19.8236 6.99542 18.7473 4.57599 16.9125 2.79653C15.0778 1.01706 12.6266 0.0151494 10.0707 2.73642e-06H10.0225C8.30127 -0.00127593 6.60947 0.445584 5.11339 1.29661C3.61734 2.14764 2.36863 3.3735 1.49013 4.85358C0.611628 6.33368 0.133616 8.01701 0.103119 9.73788C0.0726231 11.4588 0.490695 13.1579 1.3162 14.6683L0.439642 19.9135C0.438215 19.9243 0.439095 19.9352 0.442229 19.9456C0.445355 19.956 0.450669 19.9656 0.457802 19.9738C0.464935 19.982 0.473729 19.9885 0.483595 19.9931C0.493462 19.9976 0.504182 19.9999 0.515035 20H0.530115L5.71808 18.846C7.05854 19.4895 8.52647 19.8235 10.0134 19.8231C10.1079 19.8231 10.2024 19.8231 10.2969 19.8231C11.6049 19.7857 12.8925 19.4897 14.0855 18.9521C15.2785 18.4145 16.3531 17.646 17.2475 16.6909C18.1419 15.7357 18.8383 14.6129 19.2965 13.3872C19.7546 12.1615 19.9655 10.8573 19.9169 9.54968ZM10.2476 18.0991C10.1692 18.0991 10.0908 18.0991 10.0134 18.0991C8.69927 18.1007 7.40394 17.7863 6.23678 17.1823L5.9714 17.0436L2.45311 17.8749L3.10248 14.3154L2.95171 14.0601C2.23154 12.8323 1.84363 11.438 1.8262 10.0146C1.80877 8.59128 2.1624 7.18788 2.85227 5.94278C3.54215 4.69766 4.54446 3.65372 5.7605 2.91378C6.97654 2.17384 8.36434 1.76342 9.78727 1.72296C9.86634 1.72296 9.94574 1.72296 10.0255 1.72296C12.1738 1.72933 14.2336 2.57938 15.7611 4.08998C17.2887 5.60057 18.1617 7.65082 18.192 9.79888C18.2223 11.947 17.4075 14.021 15.9233 15.5741C14.4389 17.1273 12.4039 18.0351 10.2567 18.1021L10.2476 18.0991Z" fill="#25D366"/>
<path d="M6.21209 5.20578C6.32398 5.15588 6.44474 5.12894 6.5672 5.12655L6.58834 5.12354C6.7542 5.12856 6.92007 5.13359 7.0648 5.14364L7.06589 5.14372C7.24156 5.15677 7.44215 5.17166 7.61067 5.598C7.81873 6.0976 8.26207 7.34306 8.32133 7.46973C8.3586 7.53619 8.37873 7.61079 8.37993 7.68699C8.3812 7.76313 8.36347 7.83839 8.3284 7.90599C8.2606 8.05166 8.1726 8.18699 8.067 8.30806C7.93833 8.44986 7.80467 8.61366 7.68 8.73232C7.55533 8.85092 7.41867 8.98159 7.55533 9.23492C7.90907 9.88752 8.3576 10.4841 8.88626 11.0051C9.45206 11.5591 10.1166 12.0024 10.8455 12.3119C10.9298 12.3561 11.0228 12.3811 11.1179 12.3853C11.1695 12.3844 11.2203 12.3727 11.2671 12.3509C11.3138 12.329 11.3555 12.2976 11.3893 12.2587C11.5441 12.1018 12.0055 11.558 12.2065 11.3077C12.2379 11.2563 12.2813 11.2133 12.3329 11.1825C12.3846 11.1517 12.443 11.1339 12.5031 11.1308C12.5953 11.1376 12.6856 11.1611 12.7695 11.2001C12.9957 11.2906 14.1989 11.9339 14.4442 12.0626C14.6895 12.1913 14.8523 12.2637 14.9116 12.3642C14.9709 12.4647 14.9559 12.9673 14.7307 13.5423C14.5055 14.1173 13.4731 14.6461 13.0157 14.6742C12.8801 14.6823 12.7504 14.7003 12.5785 14.7003C12.1613 14.7003 11.518 14.5918 10.0503 13.9595C7.55333 12.8869 6.03748 10.2421 5.91785 10.0723L5.91689 10.0709C5.79373 9.89601 4.94288 8.68783 4.98098 7.46673C5.01918 6.24235 5.67961 5.65932 5.91584 5.41706C5.99946 5.32753 6.1002 5.25568 6.21209 5.20578Z" fill="#25D366"/>
</svg>
