<svg width="425" height="428" viewBox="0 0 425 428" fill="none" xmlns="http://www.w3.org/2000/svg">
<path d="M-364.806 -212.992C-413.55 -177.787 -433.205 -115.634 -429.579 -56.8009C-429.579 -52.8699 -429.012 -48.8516 -428.531 -44.7896C-422.285 11.5981 -398.612 63.88 -362.054 101.355C-313.747 150.842 -285.138 188.71 -252.86 266.369C-217.918 350.404 -180.88 401.157 -109.38 420.638C-44.3878 438.371 50.3049 424.175 87.9986 349.618C123.989 278.38 100.316 200.328 109.619 129.615C113.987 97.2059 127.963 64.9283 160.066 48.0687C171.965 41.9925 184.818 38.0036 198.066 36.2758C235.279 30.8598 275.2 37.9792 310.623 23.9151C358.362 5.09009 394.833 -39.985 414.4 -86.1521C433.968 -132.319 426.106 -179.753 381.817 -208.143C291.798 -266.191 170.156 -288.379 60.3508 -288.947C-32.346 -289.798 -124.856 -280.468 -215.516 -261.124C-266.269 -250.336 -321.565 -244.177 -364.806 -212.992Z" stroke="#CBCBCB" stroke-miterlimit="10"/>
</svg>
