<svg width="482" height="339" viewBox="0 0 482 339" fill="none" xmlns="http://www.w3.org/2000/svg">
<path d="M36.8447 50.3173C9.21074 74.23 0.780995 110.45 1.0043 145.483C1.0043 147.858 1.0043 150.233 1.0043 152.608C2.34413 186.075 12.1695 218.57 19.1478 245.398C30.7596 288.851 18.1429 339.7 45.4978 391.412C78.9935 454.945 139.676 459.48 179.48 427.848C216.251 416.113 247.424 391.969 267.295 359.834C288.509 323.614 292.752 287.124 310.281 256.356C318.24 241.182 331.317 229.09 347.35 222.079C354.044 219.348 361.054 217.409 368.229 216.303C388.438 213.011 409.987 214.522 428.744 206.263C452.526 195.737 469.107 173.444 477.313 149.909C481.176 139.353 482.022 127.985 479.763 117.003C477.503 106.02 472.221 95.8313 464.473 87.5089C408.145 24.4072 308.16 -4.2557 222.188 1.78997C180.729 3.84356 139.679 10.7308 99.9283 22.302C77.8769 29.2114 54.5416 35.0951 36.8447 50.3173Z" stroke="#CBCBCB" stroke-miterlimit="10"/>
</svg>
